<?xml version="1.0" encoding="utf-8"?>
<!-- Generator: Adobe Illustrator 23.1.0, SVG Export Plug-In . SVG Version: 6.00 Build 0)  -->
<svg version="1.1" id="圖層_1" xmlns="http://www.w3.org/2000/svg" xmlns:xlink="http://www.w3.org/1999/xlink" x="0px" y="0px"
	 viewBox="0 0 318.96 318.96" style="enable-background:new 0 0 318.96 318.96;" xml:space="preserve">
<style type="text/css">
	.st0{fill:#040000;}
</style>
<path class="st0" d="M159.48,0C71.4,0,0,71.4,0,159.48s71.4,159.48,159.48,159.48c88.08,0,159.48-71.4,159.48-159.48
	S247.56,0,159.48,0z M201.27,157.38c-0.2,1.87-0.85,2.11-2.45,2.1c-7.61-0.07-15.22-0.03-22.83-0.03c-0.63,0-1.26,0-2.15,0
	c0,29.66,0,59.14,0,88.8c-1.08,0-1.88,0-2.69,0c-11.48,0-22.95,0.01-34.43,0.01c-2.87,0-3-0.13-3-2.96c0-27.88,0-55.77,0-83.65
	c0-0.68,0-1.36,0-2.16c-6.59,0-12.96,0-19.34,0c0-9.98,0-19.96,0-29.95c5.62,0,11.23,0.01,16.85,0.01c2.37,0,2.49-0.13,2.49-2.5
	c0.01-7.92-0.04-15.84,0.03-23.76c0.05-4.72,0.86-9.34,2.87-13.65c4.42-9.49,12.28-14.64,22.07-17.12
	c3.43-0.87,6.99-1.23,10.49-1.82c11.6,0,23.19,0,34.79,0c0.19,0.78,0.54,1.56,0.54,2.33c0.01,8.92-0.02,17.85-0.06,26.77
	c0,0.62-0.11,1.23-0.17,1.93c-0.84,0-1.48,0-2.11,0c-6.09,0-12.18,0.05-18.27-0.01c-5.43-0.06-10.32,3.38-9.93,9.88
	c0.3,5.03,0.01,10.09,0,15.14c0,2.61,0.17,2.77,2.82,2.77c8.55-0.01,17.1-0.03,25.64-0.04c0.69,0,1.37,0,2.07,0
	c0.04,0.37,0.09,0.54,0.07,0.7C203.46,139.24,202.25,148.3,201.27,157.38z"/>
</svg>
