<?xml version="1.0" encoding="utf-8"?>
<!-- Generator: Adobe Illustrator 23.1.0, SVG Export Plug-In . SVG Version: 6.00 Build 0)  -->
<svg version="1.1" id="圖層_1" xmlns="http://www.w3.org/2000/svg" xmlns:xlink="http://www.w3.org/1999/xlink" x="0px" y="0px"
	 viewBox="0 0 28.6 28.7" style="enable-background:new 0 0 28.6 28.7;" xml:space="preserve">
<style type="text/css">
	.st0{fill:#898989;}
</style>
<g id="cXo9BE_2_">
	<g>
		<path class="st0" d="M28.6,27.1c-0.3,0.3-0.6,0.6-0.9,0.9c-0.2,0.2-0.4,0.4-0.6,0.6c-3.2-3.2-6.4-6.4-9.6-9.6
			c-0.2,0.1-0.4,0.3-0.6,0.4c-1.3,1-2.8,1.6-4.4,1.8c-3,0.5-5.8-0.1-8.2-2c-2-1.5-3.4-3.5-4-6c-0.2-0.6-0.2-1.2-0.3-1.8
			c0-0.1,0-0.1,0-0.2c0-0.4,0-0.9,0-1.3C0.1,9.7,0.1,9.3,0.2,9c0.4-2.4,1.5-4.4,3.3-6.1C5.1,1.3,7,0.4,9.2,0.1C9.9,0,10.7,0,11.5,0
			c2.8,0.1,5.1,1.3,7.1,3.3c1.6,1.6,2.5,3.6,2.9,5.9c0.4,3-0.3,5.7-2.1,8.1c0,0-0.1,0.1-0.1,0.2c0.1,0.1,0.2,0.2,0.3,0.3
			C22.5,20.9,25.5,24,28.6,27.1C28.6,27.1,28.6,27.1,28.6,27.1C28.6,27.1,28.6,27.1,28.6,27.1z M2.3,10.7c-0.2,4.2,3.3,8.5,8.5,8.5
			c4.5,0,8.5-3.7,8.5-8.5c0-4.7-3.9-8.5-8.5-8.5C5.7,2.2,2.1,6.5,2.3,10.7z"/>
	</g>
</g>
</svg>
