<?xml version="1.0" encoding="utf-8"?>
<!-- Generator: Adobe Illustrator 23.1.0, SVG Export Plug-In . SVG Version: 6.00 Build 0)  -->
<svg version="1.1" id="圖層_1" xmlns="http://www.w3.org/2000/svg" xmlns:xlink="http://www.w3.org/1999/xlink" x="0px" y="0px"
	 viewBox="0 0 318.96 318.96" style="enable-background:new 0 0 318.96 318.96;" xml:space="preserve">
<style type="text/css">
	.st0{fill:#040000;}
</style>
<g>
	<path class="st0" d="M159.55,127.57c-0.04,0-0.07,0-0.11,0c-17.52,0-31.81,14.26-31.87,31.83c-0.03,8.56,3.25,16.58,9.24,22.6
		c5.99,6.02,14.02,9.35,22.6,9.38c0.04,0,0.08,0,0.12,0c8.52,0,16.5-3.28,22.48-9.24c6.02-5.99,9.34-14.02,9.37-22.6
		C191.44,141.97,177.16,127.63,159.55,127.57z"/>
	<path class="st0" d="M232.46,195.52c0.03-24.08,0.04-48.17,0-72.25c-0.04-21.27-15.48-36.74-36.72-36.77
		c-12.09-0.02-24.18-0.03-36.28-0.03c-12.09,0-24.18,0.01-36.27,0.03c-21.23,0.03-36.67,15.5-36.7,36.78
		c-0.04,24.19-0.04,48.37,0,72.55c0.04,21.19,15.42,36.59,36.57,36.63c8.41,0.01,16.81,0.01,25.21,0.01l47.04,0
		C217.16,232.45,232.44,217.26,232.46,195.52z M159.44,209.62c-0.02,0-0.04,0-0.07,0c-13.33-0.02-25.89-5.26-35.35-14.77
		c-9.51-9.55-14.72-22.2-14.68-35.63c0.08-27.51,22.59-49.88,50.18-49.88c0.02,0,0.04,0,0.06,0c13.34,0.02,25.89,5.26,35.36,14.77
		c9.5,9.54,14.71,22.19,14.67,35.62C209.53,187.25,187.03,209.62,159.44,209.62z M210.76,120.71c-0.02,0-0.04,0-0.07,0
		c-6.9-0.04-12.48-5.68-12.45-12.58c0.03-6.87,5.65-12.44,12.53-12.44c0.02,0,0.03,0,0.05,0c3.34,0.02,6.48,1.33,8.83,3.7
		c2.35,2.37,3.63,5.52,3.62,8.86c-0.02,3.34-1.33,6.47-3.71,8.82C217.19,119.42,214.07,120.71,210.76,120.71z"/>
	<path class="st0" d="M159.48,0C71.4,0,0,71.4,0,159.48s71.4,159.48,159.48,159.48c88.08,0,159.48-71.4,159.48-159.48
		S247.56,0,159.48,0z M250.53,196.91c-0.01,24.36-16.49,45.71-40.09,51.93c-1.54,0.4-3.08,0.78-4.63,1.16l-2.21,0.55l-88.57-0.08
		l-0.75-0.22c-0.44-0.14-0.88-0.28-1.32-0.37c-22.2-4.74-36.66-18.18-42.99-39.93c-0.4-1.38-0.72-2.78-1.04-4.17l-0.51-2.42
		l0.08-88.3l0.23-0.76c0.13-0.42,0.27-0.84,0.35-1.28c4.76-26.24,26.66-44.57,53.27-44.57l17.35,0c19.29-0.01,38.57-0.01,57.86,0.01
		c28.68,0.03,52.94,24.29,52.96,52.97c0.02,22.52,0.01,45.04,0,67.56L250.53,196.91z"/>
</g>
</svg>
