<?xml version="1.0" encoding="utf-8"?>
<!-- Generator: Adobe Illustrator 23.1.0, SVG Export Plug-In . SVG Version: 6.00 Build 0)  -->
<svg version="1.1" id="圖層_1" xmlns="http://www.w3.org/2000/svg" xmlns:xlink="http://www.w3.org/1999/xlink" x="0px" y="0px"
	 viewBox="0 0 318.97 318.97" style="enable-background:new 0 0 318.97 318.97;" xml:space="preserve">
<style type="text/css">
	.st0{fill:#040000;}
</style>
<path class="st0" d="M159.49,0.01C71.41,0.01,0.01,71.41,0.01,159.49c0,88.08,71.4,159.48,159.48,159.48
	c88.08,0,159.48-71.4,159.48-159.48C318.97,71.41,247.56,0.01,159.49,0.01z M101.95,194.41c-8.46,0.06-16.93,0.08-25.39-0.01
	c-5.54-0.06-8.98-3.48-9-9.03c-0.06-17.32-0.06-34.64,0-51.97c0.02-5.3,3.69-8.87,8.73-8.86c5.03,0.01,8.67,3.59,8.7,8.9
	c0.08,12.81,0.03,25.62,0.03,38.43c0,1.56,0,3.12,0,5.1c5.93,0,11.43-0.05,16.94,0.01c5.68,0.06,9.34,3.53,9.33,8.72
	C111.3,190.89,107.63,194.37,101.95,194.41z M137.57,185.22c-0.02,5.6-3.64,9.25-8.85,9.19c-5.16-0.06-8.58-3.73-8.61-9.43
	c-0.05-8.58-0.01-17.16-0.01-25.74c0-8.43-0.04-16.87,0.01-25.3c0.03-5.71,3.44-9.35,8.63-9.4c5.21-0.05,8.81,3.59,8.83,9.2
	C137.62,150.9,137.62,168.06,137.57,185.22z M198.9,184.48c0,5.27-2.22,8.6-6.36,9.73c-4.2,1.14-7.68-0.45-10.58-4.99
	c-5.77-9.03-11.5-18.1-17.24-27.15c-0.28,0.1-0.56,0.2-0.85,0.31c0,7.42,0.03,14.84-0.01,22.26c-0.03,6.04-3.39,9.77-8.72,9.78
	c-5.34,0.01-8.74-3.71-8.75-9.74c-0.03-16.89-0.03-33.77,0-50.66c0.01-4.88,2.36-8.21,6.38-9.28c4.06-1.08,7.72,0.51,10.3,4.68
	c5.14,8.28,10.19,16.62,15.3,24.92c0.73,1.19,1.54,2.32,3.05,4.56c0-8.86-0.01-16.49,0-24.12c0.02-6.47,3.22-10.21,8.7-10.23
	c5.5-0.02,8.78,3.74,8.79,10.15C198.92,151.29,198.92,167.88,198.9,184.48z M241.49,150.76c6.16,0.03,9.88,3.23,9.97,8.53
	c0.1,5.53-3.66,8.88-10.03,8.92c-4.96,0.03-9.92,0.03-14.88,0.06c-0.27,0-0.54,0.15-1.08,0.31c0,2.59,0,5.25,0,8.39
	c5.6,0,11.1-0.04,16.6,0.01c5.7,0.06,9.37,3.49,9.39,8.66c0.02,5.19-3.64,8.72-9.3,8.76c-8.46,0.06-16.93,0.07-25.39-0.01
	c-5.57-0.05-9.03-3.45-9.05-8.97c-0.06-17.32-0.07-34.64,0-51.97c0.02-5.51,3.5-8.86,9.12-8.9c8.46-0.07,16.92-0.07,25.39,0
	c5.63,0.04,9.29,3.61,9.24,8.81c-0.05,5.15-3.74,8.55-9.45,8.61c-5.39,0.05-10.77,0.01-16.65,0.01c0,3.07,0,5.64,0,8.76
	C230.8,150.75,236.14,150.73,241.49,150.76z"/>
</svg>
