<?xml version="1.0" encoding="utf-8"?>
<!-- Generator: Adobe Illustrator 16.0.0, SVG Export Plug-In . SVG Version: 6.00 Build 0)  -->
<!DOCTYPE svg PUBLIC "-//W3C//DTD SVG 1.1//EN" "http://www.w3.org/Graphics/SVG/1.1/DTD/svg11.dtd">
<svg version="1.1" id="圖層_1" xmlns="http://www.w3.org/2000/svg" xmlns:xlink="http://www.w3.org/1999/xlink" x="0px" y="0px"
	 width="54.694px" height="42.219px" viewBox="0 0 54.694 42.219" enable-background="new 0 0 54.694 42.219" xml:space="preserve">
<g>
	<g>
		<path fill="#040000" d="M51.765,42.219H2.932C1.308,42.219,0,40.905,0,39.287c0-1.619,1.308-2.927,2.932-2.927h48.833
			c1.621,0,2.93,1.308,2.93,2.927C54.694,40.905,53.386,42.219,51.765,42.219z"/>
	</g>
	<g>
		<path fill="#040000" d="M51.765,24.033H2.932C1.308,24.033,0,22.723,0,21.106c0-1.618,1.308-2.929,2.932-2.929h48.833
			c1.621,0,2.93,1.311,2.93,2.929C54.694,22.723,53.386,24.033,51.765,24.033z"/>
	</g>
	<g>
		<path fill="#040000" d="M51.765,5.856H2.932C1.308,5.856,0,4.543,0,2.932C0,1.308,1.308,0,2.932,0h48.833
			c1.621,0,2.93,1.308,2.93,2.932C54.694,4.543,53.386,5.856,51.765,5.856z"/>
	</g>
</g>
</svg>
