<?xml version="1.0" encoding="utf-8"?>
<!-- Generator: Adobe Illustrator 23.1.0, SVG Export Plug-In . SVG Version: 6.00 Build 0)  -->
<svg version="1.1" id="圖層_1" xmlns="http://www.w3.org/2000/svg" xmlns:xlink="http://www.w3.org/1999/xlink" x="0px" y="0px"
	 viewBox="0 0 318.97 318.97" style="enable-background:new 0 0 318.97 318.97;" xml:space="preserve">
<g>
	<path d="M138.05,196.06c17.94-10.76,35.71-21.43,53.65-32.19c-17.99-10.79-35.74-21.44-53.65-32.19
		C138.05,153.23,138.05,174.56,138.05,196.06z"/>
	<path d="M159.49,0C71.4,0,0,71.4,0,159.49c0,88.08,71.4,159.49,159.49,159.49c88.08,0,159.49-71.4,159.49-159.49
		C318.97,71.4,247.57,0,159.49,0z M244.19,190.73c-0.32,5.31-0.99,10.65-2.09,15.86c-1.37,6.5-4.23,12.29-10.2,16.01
		c-3.54,2.2-7.4,3.39-11.51,3.56c-15.59,0.66-31.19,1.44-46.79,1.75c-13.32,0.27-26.65,0.08-39.97-0.12
		c-8.86-0.13-17.72-0.5-26.56-1.01c-4.43-0.25-8.88-0.79-13.22-1.68c-7.96-1.62-13.21-6.47-15.91-14.18
		c-1.99-5.68-2.78-11.55-3.28-17.5c-1.14-13.47-1.23-26.97-0.94-40.47c0.22-10.24,0.42-20.52,2.62-30.59
		c1.4-6.39,3.69-12.35,9.31-16.46c3.63-2.65,7.68-4.13,12.07-4.34c15.14-0.71,30.28-1.5,45.44-1.77
		c15.27-0.28,30.54-0.12,45.81,0.13c9.69,0.16,19.38,0.76,29.06,1.32c4.38,0.26,8.74,0.87,12.7,3.07c5.71,3.17,8.91,8.2,10.78,14.27
		c2.23,7.26,2.61,14.76,3.02,22.26c0.33,5.93,0.51,11.86,0.88,20.66C245.09,169.36,244.83,180.06,244.19,190.73z"/>
</g>
</svg>
